<!-- icon666.com - MILLIONS vector ICONS FREE --><svg version="1.1" id="Capa_1" xmlns="http://www.w3.org/2000/svg" xmlns:xlink="http://www.w3.org/1999/xlink" x="0px" y="0px" viewBox="0 0 72.182 72.182" style="enable-background:new 0 0 72.182 72.182;" xml:space="preserve"><g><g><path d="M70.354,30.94h-2.463v11.2h2.463c1.121,0,1.793-0.896,1.793-1.793v-7.616C72.37,31.835,71.476,30.94,70.354,30.94z"></path><path d="M70.354,43.259h-2.463v11.199h2.463c1.121,0,1.793-0.895,1.793-1.791v-7.615C72.37,43.931,71.476,43.259,70.354,43.259z"></path><path d="M70.354,55.354h-2.463v9.855c0,0.449,0,0.896-0.225,1.346h2.688c1.121,0,1.793-0.896,1.793-1.793v-7.615 C72.37,56.251,71.476,55.354,70.354,55.354z"></path><rect x="4.051" y="48.187" width="4.479" height="0.672"></rect><rect x="4.051" y="35.643" width="4.479" height="0.672"></rect><path d="M60.052,0.251H10.771c-3.808,0-6.72,2.912-6.72,6.721v4.256H8.53V6.971c0-1.345,0.896-2.24,2.24-2.24h49.281 c1.344,0,2.239,0.896,2.239,2.24V65.21c0,1.346-0.896,2.24-2.239,2.24h-49.28c-1.344,0-2.24-0.896-2.24-2.24v-4.479h-4.48v4.479 c0,3.809,2.912,6.721,6.72,6.721h49.281c3.808,0,6.719-2.912,6.719-6.721V6.971C66.771,3.163,63.859,0.251,60.052,0.251z"></path><rect x="4.051" y="23.099" width="4.479" height="0.673"></rect><path d="M3.603,20.86h5.6c2.017,0,3.584-1.568,3.584-3.584c0-2.017-1.567-3.584-3.584-3.584h-5.6 c-2.016,0-3.584,1.568-3.584,3.584C-0.205,19.291,1.587,20.86,3.603,20.86z"></path><path d="M3.603,33.403h5.6c2.017,0,3.584-1.567,3.584-3.584c0-2.016-1.567-3.584-3.584-3.584h-5.6 c-2.016,0-3.584,1.568-3.584,3.584C-0.205,31.835,1.587,33.403,3.603,33.403z"></path><path d="M3.603,45.947h5.6c2.017,0,3.584-1.566,3.584-3.585c0-2.016-1.567-3.584-3.584-3.584h-5.6 c-2.016,0-3.584,1.568-3.584,3.584C-0.205,44.378,1.587,45.947,3.603,45.947z"></path><path d="M12.786,54.907c0-2.016-1.567-3.584-3.584-3.584h-5.6c-2.016,0-3.584,1.568-3.584,3.584c0,2.018,1.568,3.584,3.584,3.584 h5.6C10.994,58.491,12.786,56.923,12.786,54.907z"></path><g><path d="M52.884,45.724c-0.226-0.672-0.896-0.896-1.568-1.121c-3.137-1.119-5.823-1.791-8.961-2.912 c-0.223,0-1.119-0.672-1.119-2.239c0-0.673-0.225-0.896-0.896-0.896c-0.225,0-0.225,0-0.225-0.449 c-0.225-1.344-0.225-2.238-0.225-2.462s0.225-0.447,0.225-0.447c1.119-1.345,1.345-3.36,1.345-4.256c0,0,0.224,0,0.447-0.449 c0.226-0.672,0.226-0.896,0.446-1.566c0.226-0.448,0.226-1.792-0.446-1.792c-0.447,0.225-0.226,0-0.226-0.448v-4.032 c0-1.344-0.896-2.24-1.566-2.688c-0.896-0.673-1.346-0.896-1.792-1.12c-0.447-0.225-0.226-0.672,0-1.12 c0.226-0.225,0.446-0.447,0.672-0.447H38.77c-0.223,0-2.462,0.224-3.358,0.447c-1.792,0.448-3.584,0.896-4.928,2.24 c-0.896,0.446-1.567,1.344-1.792,2.688c0,0.672,0,2.912,0,4.032c0,0.224,0,0.673-0.448,0.448c-0.896,0-0.447,1.567-0.224,1.567 c0,0.672,0.448,1.119,0.448,1.791c0.223,0.449,0.223,0.449,0.223,0.449c0.225,1.119,0.672,3.135,1.568,4.256 c0,0,0.224,0.224,0.224,0.447c0,0.671,0,1.567-0.224,2.462c0,0,0,0.449-0.225,0.449c-0.672,0-0.896,0.447-0.672,0.896 c0,1.121-0.672,2.018-1.12,2.239c-1.567,0.672-6.943,2.24-8.735,2.912c-1.12,0.226-1.568,0.672-1.792,1.121l-1.568,4.031 c6.944,0,10.304,4.256,17.472,5.377l0,0l-2.239-3.137l3.808-10.305l-1.12-2.465h2.464l-1.12,2.465l3.81,10.305l-2.24,3.137 c0.224,0,0.224,0,0.224,0c7.393-1.121,12.318-5.377,17.473-5.377L52.884,45.724z M48.402,47.74h-5.6v-0.896h5.6V47.74z"></path></g></g></g></svg>