<?xml version="1.0" encoding="iso-8859-1"?>
<!-- Uploaded to: SVG Repo, www.svgrepo.com, Generator: SVG Repo Mixer Tools -->
<svg fill="#000000" version="1.1" id="Capa_1" xmlns="http://www.w3.org/2000/svg" xmlns:xlink="http://www.w3.org/1999/xlink" 
	 viewBox="0 0 60 60" xml:space="preserve">
<g>
	<g>
		<path d="M59,10H39V6h3c0.6,0,1-0.4,1-1V1c0-0.6-0.4-1-1-1H18c-0.6,0-1,0.4-1,1v4c0,0.6,0.4,1,1,1h3v4H1c-0.6,0-1,0.4-1,1v18
			c0,0.6,0.4,1,1,1h3v27c0,1.7,1.3,3,3,3h21v-2H7c-0.6,0-1-0.4-1-1V30h17v5c0,0.6,0.4,1,1,1h12c0.6,0,1-0.4,1-1v-5h22
			c0.6,0,1-0.4,1-1V11C60,10.4,59.6,10,59,10z M19,2h22v2H19V2z M23,6h14v4H23V6z M35,34H25v-4h10V34z M58,28H36H24H2V12h20h16h20
			V28z"/>
		<rect x="23" y="17" width="14" height="2"/>
		<rect x="26" y="21" width="8" height="2"/>
		<path d="M59,34H47c-0.6,0-1,0.4-1,1v5H33c-0.6,0-1,0.4-1,1v18c0,0.6,0.4,1,1,1h26c0.6,0,1-0.4,1-1V35C60,34.4,59.6,34,59,34z
			 M58,58H34V42h13h6v-2h-5v-4h10V58z"/>
		<rect x="37" y="49" width="4" height="2"/>
		<rect x="37" y="53" width="8" height="2"/>
	</g>
</g>
</svg>