<svg width="50.000000" height="50.000000" viewBox="0 0 50 50" fill="none" xmlns="http://www.w3.org/2000/svg"
     xmlns:xlink="http://www.w3.org/1999/xlink">
    <g id="html">
        <path id="Vector" d="M18.31 42.06L27.26 6.68L31.43 7.87L22.48 43.31L18.31 42.06Z" fill="#7572D5"
              fill-opacity="1.000000" fill-rule="evenodd"/>
        <path id="Vector" d="M13.5 12.68L16.56 15.92L7.99 25L16.56 34.07L13.5 37.31L1.87 25L13.5 12.68Z" fill="#7572D5"
              fill-opacity="1.000000" fill-rule="evenodd"/>
        <path id="Vector" d="M36.49 12.68L33.43 15.92L42 25L33.43 34.07L36.49 37.31L48.12 25L36.49 12.68Z"
              fill="#7572D5" fill-opacity="1.000000" fill-rule="evenodd"/>
    </g>
    <g id="css">
        <path id="Vector"
              d="M38.05 10.84L12.94 10.83L13.35 15.75L32.63 15.75L32.15 20.85L19.5 20.85L19.96 25.67L31.73 25.67L31.03 32.28L25.49 33.78L19.86 32.27L19.5 28.31L14.53 28.31L15.08 35.54L25.49 38.73L35.73 35.86L38.04 10.84L38.05 10.84ZM5.49 2.56L45.49 2.56L41.86 42.99L25.45 47.56L9.13 42.99L5.49 2.56Z"
              fill="#7572D5" fill-opacity="1.000000" fill-rule="nonzero"/>
    </g>
    <g id="figma">
        <path id="Vector"
              d="M17.7 4.16C14.25 4.16 11.45 6.96 11.45 10.41C11.45 13.86 14.25 16.66 17.7 16.66L32.29 16.66C35.74 16.66 38.54 13.86 38.54 10.41C38.54 6.96 35.74 4.16 32.29 4.16L17.7 4.16Z"
              fill="#7572D5" fill-opacity="1.000000" fill-rule="nonzero"/>
        <path id="Vector"
              d="M32.29 18.75C28.83 18.75 26.04 21.54 26.04 25C26.04 28.45 28.83 31.25 32.29 31.25C35.74 31.25 38.54 28.45 38.54 25C38.54 21.54 35.74 18.75 32.29 18.75Z"
              fill="#7572D5" fill-opacity="1.000000" fill-rule="nonzero"/>
        <path id="Vector"
              d="M11.45 25C11.45 21.54 14.25 18.75 17.7 18.75L23.95 18.75L23.95 31.25L17.7 31.25C14.25 31.25 11.45 28.45 11.45 25Z"
              fill="#7572D5" fill-opacity="1.000000" fill-rule="nonzero"/>
        <path id="Vector"
              d="M17.7 33.33C14.25 33.33 11.45 36.13 11.45 39.58C11.45 43.03 14.25 45.83 17.7 45.83C21.16 45.83 23.95 43.03 23.95 39.58L23.95 33.33L17.7 33.33Z"
              fill="#7572D5" fill-opacity="1.000000" fill-rule="nonzero"/>
    </g>
    <g id="ts">
        <path id="Vector"
              d="M0 20L0 40L40 40L40 0L0 0L0 20ZM32.23 18.4C33.25 18.66 34.02 19.11 34.73 19.84C35.1 20.24 35.65 20.95 35.69 21.13C35.7 21.18 33.96 22.34 32.91 23C32.87 23.02 32.72 22.86 32.55 22.61C32.03 21.86 31.49 21.53 30.67 21.48C29.46 21.39 28.68 22.03 28.68 23.09C28.67 23.35 28.73 23.61 28.85 23.84C29.12 24.39 29.62 24.72 31.17 25.39C34.03 26.63 35.26 27.44 36.02 28.59C36.87 29.88 37.06 31.94 36.48 33.47C35.85 35.13 34.28 36.26 32.06 36.64C31.37 36.76 29.75 36.74 29.01 36.61C27.41 36.32 25.88 35.53 24.94 34.48C24.57 34.08 23.86 33.02 23.9 32.94C23.92 32.91 24.08 32.81 24.27 32.71C24.45 32.61 25.12 32.22 25.75 31.85L26.9 31.18L27.15 31.54C27.48 32.05 28.22 32.76 28.66 32.99C29.94 33.66 31.69 33.57 32.55 32.8C32.73 32.65 32.86 32.46 32.95 32.26C33.05 32.05 33.09 31.82 33.08 31.6C33.08 31.13 33.02 30.93 32.78 30.58C32.47 30.14 31.83 29.76 30.03 28.98C27.96 28.09 27.08 27.54 26.26 26.66C25.75 26.08 25.38 25.4 25.16 24.66C25.01 24.1 24.97 22.68 25.09 22.11C25.52 20.12 27.02 18.73 29.2 18.31C29.9 18.18 31.54 18.23 32.23 18.4ZM22.84 20.07L22.85 21.71L17.65 21.71L17.65 36.5L13.96 36.5L13.96 21.71L8.76 21.71L8.76 20.1C8.76 19.21 8.78 18.47 8.8 18.45C8.82 18.43 11.99 18.41 15.83 18.42L22.82 18.44L22.84 20.07Z"
              fill="#7572D5" fill-opacity="1.000000" fill-rule="nonzero"/>
    </g>
    <g id="styledComp">
        <path d="M37.25 6.25L36.98 7.64C36.57 10.3 36.72 11.06 37.86 12.04L38.97 12.95L37.82 18.03C37.14 21.05 36.3 23.59 35.77 24.43C35.31 25.15 34.77 26.21 34.66 26.77C34.47 27.45 33.82 28.14 32.83 28.74C31.95 29.24 30.23 30.56 29.02 31.62C28.04 32.49 27.37 33.03 27.01 33.26L25.82 34.19C25.44 34.8 25.22 35.29 25.14 35.66C25.05 36.05 25.1 36.3 25.22 36.49C25.34 36.66 25.55 36.79 25.83 36.87C26.16 36.95 26.5 36.97 26.85 36.95C27.62 36.9 28.38 36.76 29.12 36.55C29.38 36.48 29.57 36.42 29.75 36.36C30.01 36.03 30.63 35.42 31.72 34.35C34.62 31.51 35.73 29.96 34.58 30.38C34.16 30.53 34.35 30.15 35.08 29.39C36.61 27.91 37.48 25.68 39.31 18.67C40.76 13.14 40.76 13.06 41.83 13.06C42.33 13.06 43.75 13.15 43.75 13.15L43.75 6.25L40.49 6.25L37.25 6.25ZM24.42 18.08C23.36 18.07 21.1 19.66 14.33 25.16C14.03 25.85 14.01 26.32 14.14 26.63C14.23 26.84 14.39 26.99 14.61 27.1C14.82 27.2 15.1 27.27 15.41 27.29C16.03 27.35 16.76 27.25 17.35 27.14L17.74 27.05C17.88 26.87 18.06 26.72 18.26 26.62C18.68 26.39 20.43 24.81 22.19 23.1C25.28 19.99 26 18.59 24.74 18.14C24.64 18.1 24.53 18.08 24.42 18.08ZM32.33 20.23C31.4 20.26 29.74 21.33 26.88 23.59C25.44 24.75 24.54 25.37 24.05 25.5L22.16 26.98C21.45 28.27 21.35 29.07 21.53 29.51C21.58 29.62 21.65 29.72 21.73 29.8C21.82 29.88 21.92 29.95 22.03 29.99C22.31 30.1 22.6 30.15 22.9 30.15C23.6 30.14 24.31 30.04 24.99 29.85C25.34 29.75 25.69 29.64 26.03 29.52L26.14 29.47L26.33 29.37C26.69 28.91 27.52 28.04 28.56 27.04C31.84 23.9 33.51 21.66 33.17 20.83C33.02 20.42 32.75 20.22 32.33 20.23ZM23.59 24.1C23.33 24.13 22.73 24.59 21.65 25.52C20.1 26.89 18.4 27.68 17.81 27.33C17.67 27.36 17.54 27.39 17.4 27.41C16.8 27.53 16.06 27.63 15.39 27.58C15.07 27.56 14.77 27.48 14.48 27.35C14.21 27.23 13.99 27.01 13.87 26.74C13.74 26.42 13.74 26.02 13.89 25.51L11.55 27.42L6.25 31.77L6.25 38.84L23.62 25.25C23.62 25.1 23.64 24.95 23.68 24.81C23.81 24.33 23.8 24.08 23.59 24.1L23.59 24.1ZM31.07 26.39C30.81 26.39 30.37 26.76 29.66 27.5C28.71 28.51 27.21 29.49 26.41 29.69L26.29 29.76C26.16 29.81 26.02 29.86 25.89 29.91C25.67 29.98 25.39 30.06 25.07 30.15C24.42 30.33 23.61 30.49 22.89 30.47C22.55 30.47 22.22 30.4 21.9 30.27C21.6 30.15 21.37 29.92 21.24 29.63C21.03 29.13 21.11 28.44 21.57 27.44L6.25 39.43L6.25 43.75L12.98 43.75L27.26 32.61C27.63 32.2 28.19 31.64 28.94 30.94C30.96 29.08 31.42 28.44 31.42 27.49C31.42 26.76 31.33 26.38 31.07 26.38L31.07 26.39ZM34.47 33.37L33.25 34.58C32.56 35.22 31.34 36.02 30.5 36.36L30.34 36.43L30.33 36.45L30.29 36.48C30.26 36.51 30.24 36.51 30.22 36.52C29.89 36.65 29.55 36.76 29.2 36.85C28.44 37.08 27.65 37.21 26.86 37.27C26.48 37.29 26.11 37.26 25.74 37.17C25.43 37.1 25.15 36.92 24.96 36.65C24.78 36.39 24.73 36.03 24.83 35.6C24.91 35.29 25.02 34.99 25.17 34.7L13.65 43.75L28.98 43.75L30.81 41.66C33.32 38.75 34.47 36.66 34.47 34.88L34.47 33.37Z"
              fill="#7572D5" fill-opacity="1.000000" fill-rule="nonzero"/>
    </g>
    <g id="react">
        <path id="Vector"
              d="M45.62 20.41C45.62 17.49 42.5 14.78 37.29 12.91L36.35 12.6L36.35 12.18C37.5 6.45 36.66 2.18 34.06 0.62C31.45 -0.95 27.6 0.51 23.43 4.16L22.81 4.78L22.6 4.57L22.39 4.57C18.12 0.62 13.95 -0.74 11.35 0.72C8.75 2.18 8.02 6.24 9.06 11.55C9.17 11.89 9.24 12.24 9.27 12.6L8.12 13.01C3.02 14.78 0 17.49 0 20.41C0 23.32 3.33 26.24 8.54 28.12L9.27 28.32C9.14 28.69 9.07 29.08 9.06 29.47C8.02 34.68 8.95 38.64 11.35 40.1C13.75 41.55 18.12 40.2 22.29 36.55L22.91 36.03L23.75 36.87C26.66 39.37 29.58 40.72 31.87 40.72C32.68 40.74 33.47 40.52 34.16 40.1C36.77 38.64 37.7 34.37 36.56 28.95L36.56 28.74C36.51 28.57 36.48 28.4 36.45 28.22L36.77 28.22C42.29 26.24 45.62 23.43 45.62 20.41ZM42.6 20.41C42.6 21.66 40.31 23.85 35.83 25.3L35.62 25.3C35.07 23.63 34.41 21.99 33.64 20.41C34.37 18.74 35 17.07 35.52 15.51L36.35 15.72C40.52 17.18 42.6 19.16 42.6 20.41ZM25.72 34.57L24.89 33.95C26.08 32.63 27.2 31.24 28.22 29.78L33.54 28.95C33.64 29.16 33.64 29.37 33.75 29.47C34.12 31.36 34.19 33.29 33.95 35.2C33.81 36.11 33.37 36.95 32.7 37.6C31.66 38.22 28.85 37.39 25.72 34.57ZM24.37 29.99L22.91 31.87L21.25 29.99L24.37 29.99ZM10.1 15.41C10.62 17.13 11.28 18.8 12.08 20.41C11.28 22.05 10.62 23.76 10.1 25.51L9.47 25.3C7.65 24.73 5.95 23.81 4.47 22.6C4.09 22.35 3.76 22.03 3.51 21.66C3.26 21.28 3.09 20.85 3.02 20.41C3.02 19.16 5.1 17.18 9.06 15.82L10.1 15.41ZM21.25 10.82L22.81 9.05L24.37 10.82L21.25 10.82ZM32.7 3.22C33.85 3.85 34.47 6.97 33.54 11.55C33.54 11.61 33.53 11.67 33.52 11.72C33.5 11.77 33.47 11.82 33.43 11.87L28.22 11.03C27.2 9.58 26.08 8.19 24.89 6.87L25.52 6.35C28.85 3.43 31.56 2.6 32.7 3.22ZM15.31 14.26L14.47 15.62L13.75 16.97C13.43 16.24 13.22 15.51 12.91 14.68L15.31 14.26ZM12.91 26.14C13.22 25.41 13.43 24.68 13.75 23.85L14.47 25.2L15.31 26.55L12.91 26.14ZM30.31 20.41C29.78 21.55 29.19 22.66 28.54 23.74C27.91 24.89 27.18 25.93 26.56 26.97L19.06 26.97C18.33 25.82 17.6 24.78 17.08 23.74C16.42 22.67 15.83 21.55 15.31 20.41C15.81 19.25 16.4 18.14 17.08 17.07C17.68 16 18.34 14.95 19.06 13.95C21.55 13.74 24.06 13.74 26.56 13.95C27.29 14.99 27.91 16.03 28.54 17.07C29.21 18.14 29.8 19.25 30.31 20.41ZM31.14 15.62L30.31 14.26L32.7 14.78C32.47 15.53 32.19 16.26 31.87 16.97L31.14 15.62ZM30.31 26.55L31.14 25.2L31.87 23.74L32.81 26.14L30.31 26.55ZM20.62 6.76L20.72 6.76L17.39 10.93L12.18 11.76C12.08 11.45 12.08 11.24 11.97 10.93C11.14 6.66 11.77 3.74 12.81 3.22C13.08 3.04 13.42 2.96 13.75 3.01C15.2 3.01 17.7 4.05 20.52 6.55L20.62 6.76ZM11.97 29.99C11.99 29.67 12.06 29.35 12.18 29.05L17.5 29.78C18.5 31.26 19.61 32.65 20.83 33.95L20.62 34.16L20.41 34.37C18.99 35.68 17.33 36.71 15.52 37.39C15.12 37.6 14.68 37.72 14.24 37.76C13.79 37.79 13.34 37.74 12.91 37.6C11.77 36.97 11.14 34.16 11.97 29.99Z"
              fill="#7572D5" fill-opacity="1.000000" fill-rule="nonzero"/>
        <path id="Vector"
              d="M22.81 15.82C21.9 15.8 21 16.06 20.23 16.55C19.47 17.04 18.86 17.75 18.5 18.58C18.14 19.42 18.03 20.34 18.2 21.24C18.36 22.13 18.79 22.96 19.43 23.61C20.06 24.26 20.88 24.71 21.77 24.89C22.66 25.08 23.59 25 24.43 24.65C25.28 24.31 26 23.72 26.51 22.97C27.01 22.21 27.29 21.32 27.29 20.41C27.29 19.21 26.82 18.06 25.98 17.2C25.14 16.35 24 15.85 22.81 15.82Z"
              fill="#7572D5" fill-opacity="1.000000" fill-rule="nonzero"/>
    </g>
    <g id="quote">
        <path d="M13.54 20.83C13.07 20.83 12.63 20.9 12.18 20.96C12.33 20.48 12.47 19.99 12.71 19.55C12.95 18.91 13.32 18.35 13.69 17.79C14 17.18 14.54 16.77 14.94 16.25C15.36 15.75 15.93 15.41 16.38 14.99C16.83 14.56 17.41 14.34 17.87 14.03C18.35 13.75 18.77 13.45 19.22 13.3L20.35 12.84L21.33 12.43L20.32 8.39L19.08 8.69C18.68 8.79 18.2 8.91 17.65 9.05C17.08 9.15 16.48 9.44 15.81 9.7C15.15 9.99 14.38 10.19 13.67 10.67C12.95 11.12 12.12 11.5 11.39 12.11C10.69 12.74 9.83 13.28 9.21 14.08C8.52 14.82 7.84 15.61 7.31 16.5C6.7 17.35 6.29 18.28 5.85 19.21C5.45 20.13 5.13 21.07 4.87 21.99C4.38 23.83 4.16 25.57 4.07 27.07C4 28.56 4.05 29.81 4.13 30.71C4.16 31.13 4.22 31.54 4.26 31.83L4.32 32.18L4.37 32.17C4.74 33.9 5.59 35.49 6.83 36.75C8.07 38.02 9.64 38.91 11.36 39.32C13.08 39.73 14.88 39.65 16.56 39.08C18.23 38.51 19.71 37.47 20.83 36.1C21.94 34.72 22.64 33.06 22.85 31.3C23.06 29.54 22.76 27.76 22 26.16C21.23 24.57 20.04 23.22 18.54 22.27C17.04 21.33 15.31 20.83 13.54 20.83ZM36.45 20.83C35.99 20.83 35.54 20.9 35.1 20.96C35.24 20.48 35.39 19.99 35.63 19.55C35.87 18.91 36.24 18.35 36.61 17.79C36.91 17.18 37.46 16.77 37.86 16.25C38.28 15.75 38.85 15.41 39.3 14.99C39.74 14.56 40.32 14.34 40.79 14.03C41.27 13.75 41.69 13.45 42.14 13.3L43.26 12.84L44.25 12.43L43.24 8.39L42 8.69C41.6 8.79 41.11 8.91 40.56 9.05C40 9.15 39.4 9.44 38.72 9.7C38.06 9.99 37.3 10.19 36.58 10.67C35.87 11.12 35.04 11.5 34.31 12.11C33.6 12.74 32.75 13.28 32.12 14.08C31.43 14.82 30.76 15.61 30.23 16.5C29.62 17.35 29.2 18.28 28.77 19.21C28.37 20.13 28.05 21.07 27.79 21.99C27.3 23.83 27.08 25.57 26.99 27.07C26.92 28.56 26.96 29.81 27.05 30.71C27.08 31.13 27.14 31.54 27.18 31.83L27.23 32.18L27.29 32.17C27.66 33.9 28.51 35.49 29.75 36.75C30.98 38.02 32.55 38.91 34.28 39.32C36 39.73 37.8 39.65 39.48 39.08C41.15 38.51 42.63 37.47 43.74 36.1C44.86 34.72 45.56 33.06 45.76 31.3C45.97 29.54 45.68 27.76 44.91 26.16C44.15 24.57 42.95 23.22 41.45 22.27C39.96 21.33 38.22 20.83 36.45 20.83Z" fill="#7572D5" fill-opacity="1.000000" fill-rule="nonzero"/>
    </g>


    <g id="inst">
        <path d="M15.65 2.1L5.34 2.1C3.55 2.1 2.09 3.55 2.09 5.34L2.09 8.77L2.09 15.65C2.09 17.44 3.55 18.9 5.34 18.9L15.65 18.9C17.44 18.9 18.9 17.44 18.9 15.65L18.9 8.77L18.9 5.34C18.89 3.55 17.43 2.1 15.65 2.1ZM16.58 4.03L16.95 4.03L16.95 4.4L16.95 6.88L14.11 6.88L14.1 4.04L16.58 4.03ZM8.09 8.77C8.63 8.03 9.5 7.53 10.49 7.53C11.47 7.53 12.35 8.02 12.88 8.77C13.24 9.25 13.44 9.85 13.44 10.49C13.44 12.12 12.12 13.45 10.48 13.45C8.85 13.45 7.54 12.12 7.54 10.49C7.54 9.85 7.75 9.25 8.09 8.77ZM17.25 15.64C17.25 16.53 16.53 17.25 15.65 17.25L5.34 17.25C4.46 17.25 3.74 16.53 3.74 15.64L3.74 8.77L6.24 8.77C6.03 9.3 5.9 9.88 5.9 10.49C5.9 13.02 7.96 15.08 10.5 15.08C13.03 15.08 15.09 13.02 15.09 10.49C15.09 9.88 14.96 9.3 14.75 8.77L17.25 8.77L17.25 15.64Z" fill="#7572D5" fill-opacity="1.000000" fill-rule="nonzero"/>
    </g>
    <g id="telega">
        <path d="M18.9 4.76L16.37 16.72C16.17 17.56 15.68 17.77 14.97 17.37L11.1 14.53L9.24 16.32C9.03 16.53 8.86 16.7 8.46 16.7L8.74 12.76L15.9 6.29C16.21 6.02 15.83 5.86 15.42 6.14L6.57 11.71L2.76 10.52C1.93 10.26 1.91 9.69 2.93 9.29L17.83 3.55C18.52 3.29 19.13 3.71 18.9 4.76Z" fill="#1F1F20" fill-opacity="1.000000" fill-rule="nonzero"/>
    </g>
    <g id="wk">
        <path d="M18.16 13.99C17.8 13.53 17.38 13.13 16.98 12.73C16.84 12.59 16.69 12.45 16.55 12.3C16.14 11.89 16.12 11.73 16.45 11.26C16.67 10.94 16.91 10.61 17.14 10.3C17.35 10.01 17.56 9.72 17.77 9.42L17.81 9.36C18.21 8.8 18.61 8.21 18.83 7.5C18.89 7.32 18.95 7.04 18.81 6.82C18.68 6.59 18.41 6.52 18.23 6.48C18.14 6.47 18.05 6.47 17.96 6.47L15.38 6.46L15.35 6.46C14.96 6.46 14.7 6.65 14.55 7.05C14.41 7.42 14.25 7.82 14.07 8.2C13.71 8.96 13.25 9.83 12.59 10.56L12.56 10.59C12.48 10.67 12.4 10.77 12.33 10.77C12.32 10.77 12.31 10.77 12.3 10.77C12.16 10.71 12.07 10.37 12.07 10.21C12.07 10.21 12.07 10.2 12.07 10.2L12.07 7.11C12.07 7.09 12.07 7.08 12.07 7.07C12 6.57 11.86 6.26 11.31 6.15C11.29 6.14 11.28 6.14 11.26 6.14L8.58 6.14C8.14 6.14 7.9 6.32 7.67 6.6C7.61 6.67 7.48 6.83 7.54 7.01C7.61 7.2 7.82 7.24 7.88 7.26C8.22 7.32 8.41 7.54 8.46 7.91C8.56 8.56 8.57 9.25 8.5 10.08C8.48 10.31 8.44 10.49 8.38 10.65C8.37 10.68 8.31 10.8 8.26 10.8C8.24 10.8 8.2 10.79 8.11 10.73C7.9 10.58 7.75 10.37 7.57 10.11C6.96 9.22 6.46 8.25 6.02 7.12C5.85 6.71 5.55 6.48 5.16 6.47C4.73 6.47 4.34 6.46 3.97 6.46C3.56 6.46 3.19 6.47 2.82 6.47C2.51 6.48 2.29 6.58 2.18 6.76C2.06 6.95 2.07 7.2 2.2 7.49C3.23 9.88 4.17 11.61 5.24 13.11C5.99 14.16 6.74 14.89 7.6 15.4C8.51 15.94 9.53 16.2 10.72 16.2C10.85 16.2 10.99 16.2 11.13 16.19C11.82 16.16 12.08 15.9 12.11 15.2C12.13 14.85 12.16 14.47 12.33 14.16C12.44 13.96 12.54 13.96 12.57 13.96C12.63 13.96 12.71 13.99 12.8 14.04C12.95 14.14 13.08 14.28 13.18 14.4C13.28 14.51 13.38 14.63 13.48 14.74C13.69 14.99 13.91 15.24 14.14 15.48C14.64 16.01 15.19 16.24 15.83 16.19L18.2 16.19C18.2 16.19 18.21 16.19 18.21 16.19C18.45 16.18 18.65 16.04 18.77 15.82C18.92 15.55 18.92 15.2 18.77 14.89C18.59 14.54 18.36 14.24 18.16 13.99Z" fill="#7572D5" fill-opacity="1.000000" fill-rule="nonzero"/>
    </g>
    <g id="lincDin">
        <path d="M2.53 7.88L5.8 7.88L5.8 18.36L2.53 18.36L2.53 7.88Z" fill="#7572D5" fill-opacity="1.000000" fill-rule="evenodd"/>
        <path d="M4.1 2.93C2.89 2.93 2.09 3.72 2.09 4.75C2.09 5.77 2.86 6.57 4.05 6.57L4.08 6.57C5.31 6.57 6.08 5.76 6.07 4.75C6.04 3.72 5.3 2.93 4.1 2.93Z" fill="#7572D5" fill-opacity="1.000000" fill-rule="nonzero"/>
        <path d="M14.74 7.78C12.87 7.78 11.69 8.81 11.48 9.53L11.48 7.88L7.8 7.88C7.84 8.75 7.8 18.36 7.8 18.36L11.48 18.36L11.48 12.7C11.48 12.37 11.46 12.06 11.55 11.84C11.8 11.21 12.35 10.55 13.33 10.55C14.6 10.55 15.18 11.52 15.18 12.94L15.18 18.36L18.9 18.36L18.9 12.53C18.9 9.29 17.07 7.78 14.74 7.78Z" fill="#7572D5" fill-opacity="1.000000" fill-rule="nonzero"/>
    </g>


</svg>
